<svg id="Layer_1" data-name="Layer 1" xmlns="http://www.w3.org/2000/svg" viewBox="0 0 364.16 59.52"><defs><style>.cls-1{fill:#3a3a3a;}</style></defs><title>Artboard 2</title><g id="msjALz"><path class="cls-1" d="M323,39.76a11,11,0,0,0,3.28-2.19,39.21,39.21,0,0,1,3.06-2.63.39.39,0,0,0,.09-.08c.78-1.29,2.18-1.9,3.19-2.93a7.94,7.94,0,0,1,1.3-1,1.08,1.08,0,0,1,1.41.14,2.28,2.28,0,0,1,.78,1.66,8.92,8.92,0,0,1-1.35,5.05,28.7,28.7,0,0,0-1.47,3.46.61.61,0,0,0,0,.45c.07.12.36.25.4.21a11,11,0,0,0,1.2-1.18c.5-.6.94-1.26,1.44-1.88a5.52,5.52,0,0,1,.69-.66c.09-.08.23-.1.3-.19.65-.83,1.29-1.67,1.94-2.5.36-.47.7-.95,1.08-1.4a28,28,0,0,1,1.91-2.13,11,11,0,0,1,1.8-1.32.94.94,0,0,1,.75,0,2.64,2.64,0,0,1,1,2.17A3.33,3.33,0,0,1,344.66,35a12,12,0,0,0-1.13,1.53c-.13.19-.18.48-.35.61A4,4,0,0,0,342,39.46c-.23.79-.61,1.52-.88,2.3a13.43,13.43,0,0,0-.28,3.18,6.1,6.1,0,0,0,.78,3.53,2.28,2.28,0,0,0,1.19,1.08,12.68,12.68,0,0,0,3.34.65,8.31,8.31,0,0,0,4.24-1.26,7.59,7.59,0,0,0,2.23-1.51c1.12-1.27,2.41-2.4,3.42-3.74.87-1.15,1.8-2.28,2.67-3.43a26,26,0,0,0,2.41-4.68c.65-1.34,1.35-2.65,2-4a3.06,3.06,0,0,1,.32-.41,1.73,1.73,0,0,1,.66,1.49,11.7,11.7,0,0,1,0,1.56c-.27,1.65-.13,3.42-1.39,4.78a.24.24,0,0,0,0,.11c-.34,1.66-1.5,2.9-2.31,4.31a12.09,12.09,0,0,1-2.07,2.66c-.37.36-.64.81-1,1.16-.69.66-1.43,1.25-2.12,1.91-.42.41-.75.92-1.17,1.33s-.72.75-1.13.8a3.14,3.14,0,0,0-1.23.63,13.2,13.2,0,0,1-3.71,1.39,9.6,9.6,0,0,1-4.53-.31,10.63,10.63,0,0,1-2.88-1.54c-1.65-1-2-2.72-2.47-4.28a10,10,0,0,1,.06-3.07c0-.84.52-1.64.11-2.51-.31-.65-.69-.79-1.14-.26-.71.84-1.37,1.72-2.05,2.59a1.52,1.52,0,0,1-.13.2,15.56,15.56,0,0,0-2.47,3.29c-.21.33-.45.64-.68,1-.34.48-.69,1-1,1.45-.59.88-1.16,1.77-1.75,2.65a1.5,1.5,0,0,1-1.6.79,1.84,1.84,0,0,1-1.51-1.17c-.21-.53.1-1,.23-1.44a15,15,0,0,1,.85-2.3,16.35,16.35,0,0,1,1.19-2.15,3.08,3.08,0,0,0,.5-1.42,5.19,5.19,0,0,1,.48-1.57c.61-1.31,1.27-2.61,1.92-3.9.23-.46.51-.89.74-1.35a1.41,1.41,0,0,0,.18-.54c0-.56-.27-.74-.81-.57a7.24,7.24,0,0,0-2.72,2.07,18.85,18.85,0,0,1-3.67,3.31,6.92,6.92,0,0,0-.9.77,2.81,2.81,0,0,1-2.12.88,1.89,1.89,0,0,0-2,1.2c-.73,1.4-1.9,2.5-2.53,4-.26.62-1,1-1.47,1.56s-.81.77-1.18,1.19a3,3,0,0,1-1.37.87,10.73,10.73,0,0,0-1.3.54,2.82,2.82,0,0,1-2,.17c-.61-.15-1.24-.21-1.83-.41a3.86,3.86,0,0,1-2.06-1.67c-.14-.23-.25-.49-.38-.73-.42-.8-.74-.89-1.47-.38a7.14,7.14,0,0,0-1.2,1,6.63,6.63,0,0,1-2.29,1.4,8.11,8.11,0,0,1-3.79.67,1.6,1.6,0,0,1-.66-.22,6.09,6.09,0,0,1-2.91-3,4.59,4.59,0,0,1-.54-1.91,1.94,1.94,0,0,0-.52-1,.78.78,0,0,0-1.16-.13,5.82,5.82,0,0,0-1,1.17,13.4,13.4,0,0,1-2.39,2.76,7.24,7.24,0,0,1-3.6,1.87c-.54.11-.88.63-1.53.53s-1.09.22-1.62.17a5,5,0,0,1-1.8-.48,6.29,6.29,0,0,1-2-1.4,9.85,9.85,0,0,1-2.11-3.88,13,13,0,0,0-.71-1.74c-.09-.22-.26-.45-.23-.65.17-.92-.35-1.68-.52-2.52a.71.71,0,0,0-1.27-.34,15.52,15.52,0,0,0-2.12,3.25,6.32,6.32,0,0,1-1.18,1.88,3.61,3.61,0,0,0-.71,1.47c-.08.3-.15.61-.25.91a6.52,6.52,0,0,0-.77,2.45c0,.67-.53.78-1.08.31l-.09-.08c-1.15-1-1.25-1-2.49-.1a3.56,3.56,0,0,1-4.25.41A5,5,0,0,1,257.65,51a5.57,5.57,0,0,1-1-3.68c.09-.65.35-1.28.46-1.94.29-1.9.74-3.76,1.21-5.62.19-.76.37-1.52.52-2.29a.77.77,0,0,0-.77-1A2,2,0,0,0,257,37a28.74,28.74,0,0,0-2,2.32c-.63.79-1.23,1.62-1.79,2.47a15.52,15.52,0,0,0-1.33,2.34c-.51,1.19-1.3,2.22-1.71,3.47-.47,1.44-1.12,2.82-1.73,4.2a2.56,2.56,0,0,1-1.5,1.55c-1.28.46-2.24-.09-2.29-1.43a11.18,11.18,0,0,1,.56-4.55c0-.07.13-.15.12-.2-.41-1.79.76-3.41.56-5.2-.06-.57.35-1.18.52-1.78a1.64,1.64,0,0,0,.1-.8,2.32,2.32,0,0,1,0-1.84.73.73,0,0,0,0-.47c0-.1-.14-.26-.2-.26s-.34.08-.38.18c-.21.5-.36,1-.56,1.54-.33.87-.68,1.73-1,2.59A6.08,6.08,0,0,0,244,42a25.9,25.9,0,0,1-1.82,4.69c-.4.92-1.19,1.57-1.53,2.49a7.8,7.8,0,0,1-1.83,2.32,7.35,7.35,0,0,1-2.94,1.91,2.71,2.71,0,0,1-2.74-.68,5.8,5.8,0,0,1-1.68-2.13c-.39-.89-1.15-1-1.59-.21-1,1.76-2.71,2.33-4.37,3a3.76,3.76,0,0,1-1.54.09c-.49,0-1-.31-1.48,0-.12.07-.46-.11-.61-.26-.88-.87-2.06-1.5-2.29-2.9,0-.27-.35-.5-.7-1a8.88,8.88,0,0,1-.68,1A20.23,20.23,0,0,1,216,52.53a3.9,3.9,0,0,1-3.27.76c-.32-.07-.68.08-1,0A4.09,4.09,0,0,1,208.62,50a12.37,12.37,0,0,1,1-6,2.62,2.62,0,0,0,.17-.68c0-.2-.05-.45,0-.59.76-1.18.61-2.58,1-3.84a1.11,1.11,0,0,0-.23-1.19,7.32,7.32,0,0,0-3-2.3c-.53-.18-.71-.17-1,.33a10.41,10.41,0,0,0-.49,1.32,5,5,0,0,1-.17.68c-.66,1.29-1.33,2.57-2,3.84-.48.9-1,1.79-1.45,2.68A14.65,14.65,0,0,1,200,48.06s-.07.05-.08.09c-.27,1.22-1.34,1.92-1.94,2.92a5.71,5.71,0,0,1-2.51,2.29,2.29,2.29,0,0,1-2-.29c-.21-.09-.32-.7-.26-1a2.57,2.57,0,0,1,.62-1.12c1-1.1,2-2.16,3-3.25a3.72,3.72,0,0,0,.51-.79c.41-.8.77-1.62,1.22-2.4.33-.57.81-1.06,1.15-1.63.46-.77.84-1.58,1.27-2.37a48.45,48.45,0,0,1,2.7-4.82A37.21,37.21,0,0,0,205.52,32a18.75,18.75,0,0,0,1.18-3.43,2.51,2.51,0,0,1,.45-.93,1.24,1.24,0,0,1,1.66-.25l.65.29a.9.9,0,0,1,.6.94c0,.4,0,.8,0,1.19a2.66,2.66,0,0,0,.47,1.8,17.31,17.31,0,0,0,1.44,2,3.36,3.36,0,0,0,1.1.62c.84.4,1,.59.8,1.42-.35,1.56-.69,3.12-1.06,4.68a27,27,0,0,0-.82,3.53,31.94,31.94,0,0,0,0,3.69,1.87,1.87,0,0,0,1.64,1.84c1.82.41,3-.42,4.29-1.65a6.16,6.16,0,0,0,1.55-3.3c.39-1.63,1-3.21,1.49-4.81.14-.45.27-.9.43-1.34a3.79,3.79,0,0,1,1.18-2,1.44,1.44,0,0,0,.45-.67,8.83,8.83,0,0,1,2.8-3.48,7,7,0,0,1,1.27-.85,5.31,5.31,0,0,1,3.89-.5c.76.17,1.55.25,2.32.35a1,1,0,0,0,1-.31,1.31,1.31,0,0,1,1.64-.3,1.42,1.42,0,0,1,.78,1.48,16.48,16.48,0,0,1-.29,2.58c-.42,2-.9,3.89-1.4,5.82-.14.52-.54,1-.66,1.5-.23,1-.35,2.09-.52,3.14a5.07,5.07,0,0,0-.16,1,14,14,0,0,0,.32,3.27c.4,1.3,1.11,1.18,2,.61a2.55,2.55,0,0,0,.71-.79c.5-.79.94-1.64,1.46-2.42a15.76,15.76,0,0,0,1.54-3.41c.48-1.28,1.09-2.51,1.65-3.76a1.32,1.32,0,0,0,.15-.31c.19-1.43,1-2.61,1.46-3.94a5.05,5.05,0,0,1,.48-.94c.38-.64.73-1.3,1.16-1.91A4.85,4.85,0,0,1,246,31a5.18,5.18,0,0,1,2.8-.73,1.38,1.38,0,0,1,1.33,1.41,3.89,3.89,0,0,1-.19,2.11.9.9,0,0,0,0,.35c-.08,1.22-.13,2.45-.25,3.67-.09.89-.29,1.78-.42,2.66a3.83,3.83,0,0,0,0,.83c0,.22.09.63.17.63a1.87,1.87,0,0,0,.88-.16,1.06,1.06,0,0,0,.51-.5c.61-1.44,2-2.32,2.61-3.76a9.65,9.65,0,0,0,1.87-2.35c.24-.3.65-.45.93-.73.51-.5,1-1.07,1.46-1.57a28.74,28.74,0,0,1,2.23-2.05,1.63,1.63,0,0,1,1.82.24,2.68,2.68,0,0,1,1,2.78,17.74,17.74,0,0,1-.71,3.08c-.39,1.13-.41,2.31-.7,3.45-.51,2-1,4-1.46,6a1.3,1.3,0,0,1-.16.44c-.55.77-.14,1.52.12,2.22a1.67,1.67,0,0,0,2.22.75A6.43,6.43,0,0,0,264.2,48c.24-.25.44-.53.67-.79a2.11,2.11,0,0,0,.66-1.58,3,3,0,0,1,.34-1.59,21.69,21.69,0,0,0,1.3-3.78c.41-1.14.71-2.31,1.07-3.46s.67-2.33,1.14-3.44,1.1-2.16,1.67-3.23c.11-.21.31-.39.34-.61a10,10,0,0,1,1.36-3.25c.34-.65.38-1.4.79-2.07a16.42,16.42,0,0,1,1.78-2.77,8.72,8.72,0,0,0,.69-1.23c.86-1.31,1.68-2.64,2.64-3.88a10.59,10.59,0,0,1,2-1.74,5.91,5.91,0,0,1,2.27-.86.86.86,0,0,1,1.08.64,9.2,9.2,0,0,1,1,3.11,14.63,14.63,0,0,1-.05,1.5c-.07.94-.14,1.89-.26,2.83a1.48,1.48,0,0,1-.32.75,16.43,16.43,0,0,0-1.5,3c-.54,1-1,2-1.49,2.95s-.4.93.56,1.32a4.26,4.26,0,0,1,2.54,3.76,7.1,7.1,0,0,1-4.1,6.55,3.12,3.12,0,0,1-2.33.08,3.07,3.07,0,0,0-2.09.13c-.13.06-.34.17-.33.25,0,1.1-.28,2.24.19,3.3a16.66,16.66,0,0,0,2.66,4.41,5.63,5.63,0,0,0,3.17,1.87,3.88,3.88,0,0,0,2.77-.82,12.14,12.14,0,0,0,4.2-4.11,2.59,2.59,0,0,1,.4-.44,3.35,3.35,0,0,1,.43-.42c.86-.62.8-1.79,1.52-2.5a5.42,5.42,0,0,0,1.24-2.63A35.77,35.77,0,0,1,293.5,34a.69.69,0,0,0,.07-.34,3.68,3.68,0,0,1,.55-2.14.84.84,0,0,0-.84-1.25c-1,.11-1.93.29-2.9.45a1.16,1.16,0,0,0-.44.15,2,2,0,0,1-2.32-.14,1.59,1.59,0,0,1-.76-1.61,1.49,1.49,0,0,1,.8-1.46,10.6,10.6,0,0,1,3.06-.77c1.36-.22,2.74-.13,4.1-.24a1.56,1.56,0,0,0,1.68-1.34A16,16,0,0,1,299,20.64a4.85,4.85,0,0,0,.4-1,4.36,4.36,0,0,1,.53-1.17c.83-1,1.16-2.23,1.9-3.24l2.25-3c.28-.38.53-.79.83-1.14a2.31,2.31,0,0,1,.77-.66c.9-.38,1.27,0,1.41.9A4.09,4.09,0,0,1,306,14.49a14.55,14.55,0,0,0-1.66,2.84c-.45.93-1,1.83-1.37,2.81-.56,1.5-1.18,3-1.75,4.48-.27.73-.09,1,.65,1.17a8.57,8.57,0,0,0,3.49-.22,4.36,4.36,0,0,1,.45-.12c1.54-.09,3.09-.14,4.63-.26,1.22-.09,2.42-.28,3.64-.41a8.71,8.71,0,0,1,1-.05c2.67,0,5.34,0,8,0a10.12,10.12,0,0,1,2.1.28c.42.09.84.43.81.87a1.76,1.76,0,0,1-.6,1,1.33,1.33,0,0,1-.76.26,45.28,45.28,0,0,1-6.62.52,15.52,15.52,0,0,0-2.8.39c-.35,0-.72,0-1.07.06-.55,0-1.09.13-1.64.16a4.63,4.63,0,0,1-.67-.1,4.54,4.54,0,0,0-2.46.19,2.86,2.86,0,0,1-1.14.22,20.91,20.91,0,0,0-4.52.45,9,9,0,0,1-2.39,0c-1.7-.08-2.3.62-2.83,2s-1.06,2.5-1.45,3.81c-.28.93-.79,1.79-1.14,2.7a11.4,11.4,0,0,0-1,4.07c0,.73.41,1.45,0,2.19,0,.08,0,.23.08.34a24,24,0,0,1,.7,2.72,11.17,11.17,0,0,0,1.3,2.88,1.34,1.34,0,0,0,1.61.4c1-.37,1.94-.79,2.91-1.2a1.08,1.08,0,0,0,.28-.23l3.49-3.25a4.46,4.46,0,0,0,1.38-2.29,7.37,7.37,0,0,1,1.08-2.32l2.78-4.36a2.71,2.71,0,0,0,.48-1.8,7.73,7.73,0,0,1,0-.84,2.51,2.51,0,0,1,2-2.79,7.23,7.23,0,0,1,2.64-.56,8.61,8.61,0,0,1,5.11,1.85,3.38,3.38,0,0,1,1.52,2.45,7.16,7.16,0,0,0,.27.89,7.47,7.47,0,0,1,.12,1.39c0,.55-.1,1.1-.17,1.64A1,1,0,0,0,323,39.76ZM222.46,49l.07,0c0,.12,0,.24,0,.36,0,.84.09.95.88,1.17a1.68,1.68,0,0,0,.93.08,5.39,5.39,0,0,0,3.31-2.3,3.16,3.16,0,0,1,.69-.95c1.15-1,1.28-2.48,2.07-3.64.15-.22,0-.62,0-.94a6,6,0,0,1,0-1.55A22.47,22.47,0,0,1,232,36.94a1.76,1.76,0,0,0,.26-.53c.08-.61.38-1.31-.22-1.79a4.21,4.21,0,0,0-2.32-1,2.25,2.25,0,0,0-2.34,1.23c-.25.44-.66.8-.95,1.22a12,12,0,0,0-1.26,2A9.07,9.07,0,0,1,224,40.43a1.17,1.17,0,0,0-.27.64,16.1,16.1,0,0,1-.9,3.88,1.55,1.55,0,0,0-.06.93c.28.69-.09,1.31-.1,2A6.23,6.23,0,0,1,222.46,49Zm87.89,2a5.88,5.88,0,0,0,1.18-.47,17.9,17.9,0,0,0,5.32-6.39c.41-.76.36-.87-.42-1.26a6,6,0,0,1-2.2-1.68,10.61,10.61,0,0,0-1.35-1.36,1.07,1.07,0,0,0-1.65,0,9.56,9.56,0,0,0-2.53,3.8c-.29.75-.25,1.63-.52,2.39-.37,1.07.17,2.1,0,3.15,0,.12.13.28.23.4a5.18,5.18,0,0,0,.79.88A6.67,6.67,0,0,0,310.35,51ZM272.73,35a4.37,4.37,0,0,0,2-1.81,12.61,12.61,0,0,1,.85-1.13l1.26-1.7c.23-.32.45-.65.68-1a45.91,45.91,0,0,0,3.68-5.88,28.81,28.81,0,0,0,1.57-4.29,3.43,3.43,0,0,0,0-1.31.4.4,0,0,0-.7-.29,3.6,3.6,0,0,0-1,1.05c-.6,1.33-2,2.17-2.33,3.63,0,.07-.11.11-.16.17a12.23,12.23,0,0,0-2.15,3.63c-.33.8-.71,1.57-1.11,2.33-.66,1.25-1.3,2.51-2,3.75A4.32,4.32,0,0,0,272.73,35Zm47.1,2.69a3,3,0,0,0-.53-1.81,8.7,8.7,0,0,1-.58-1,4.62,4.62,0,0,0-.44-.69c-.39-.46-.65-.47-1.09-.09-.09.08-.16.17-.26.25-.74.62-1.09,1.61-2.12,2-.5.18-.49.91,0,1.29a13.81,13.81,0,0,0,3.09,2.11,1.12,1.12,0,0,0,1.59-.58A7.66,7.66,0,0,0,319.83,37.7Zm-39-2.27c0-.67-.3-1-.81-.87a2.44,2.44,0,0,0-1,.52c-.62.55-1.18,1.18-1.78,1.75-.33.31-.21.54.07.77s.64.42,1.06.1.72-.31,1-.52A2.84,2.84,0,0,0,280.85,35.43Z"/><path class="cls-1" d="M50.82,13.93a5.51,5.51,0,0,0,4.12-1.51c.83-.72,1.77-1.3,2.64-2a2.76,2.76,0,0,0,1.14-1.6A5.38,5.38,0,0,1,60.4,5.93,10.11,10.11,0,0,0,62,3.73,4.65,4.65,0,0,1,64.64,2a1.15,1.15,0,0,1,1.65.86,1.76,1.76,0,0,1-.18,1.1,12.62,12.62,0,0,1-2.18,3.37,17.56,17.56,0,0,0-1.89,2.54,9.48,9.48,0,0,1-.8,1A6.63,6.63,0,0,0,59.7,14c-.32,1.19-.39,2.4-.69,3.57a15.09,15.09,0,0,0-.68,3.81c0,1,.2,1.21,1.19,1.2.59,0,1.17-.12,1.76-.18a4.48,4.48,0,0,1,.83,0,10.8,10.8,0,0,0,4.07-.57c.15,0,.3-.16.44-.15A10.71,10.71,0,0,0,70,21a10.53,10.53,0,0,1,2.1-.31A4.36,4.36,0,0,0,74,20.13a6.34,6.34,0,0,1,2.83-.7,2.78,2.78,0,0,0,.9-.22c.29-.11.56-.3.85-.4a1.73,1.73,0,0,1,2.31,1.72c0,.11-.06.27-.14.31a7.92,7.92,0,0,1-1.84.73,8.83,8.83,0,0,0-1.8.49,4.05,4.05,0,0,1-1.93.51.57.57,0,0,0-.34.08,6.62,6.62,0,0,1-3.05.66c-1.2.14-2.36.52-3.55.77a16.51,16.51,0,0,1-2.19.38,12.24,12.24,0,0,0-2.81.37,6.37,6.37,0,0,1-2.17.12,3.28,3.28,0,0,0-2,.82,1,1,0,0,0-.35,1.14,11.21,11.21,0,0,1,.14,2.49,23.92,23.92,0,0,0,.46,4.23,17.91,17.91,0,0,1,.26,2.71,46.33,46.33,0,0,0,.47,5.3c.08.55-.05,1.13,0,1.68a3.59,3.59,0,0,1,0,2.3.32.32,0,0,0,0,.24,2.85,2.85,0,0,1-.24,2.36,3.07,3.07,0,0,1-.34.72,8.85,8.85,0,0,0-.91,1.49A6,6,0,0,1,56,53c-.38.2-.74.44-1.1.67a4.76,4.76,0,0,1-.7.44,26.43,26.43,0,0,1-4.78,1.56,5.22,5.22,0,0,1-2.55,0,6.28,6.28,0,0,0-1.74-.15c-.55,0-1.1.12-1.65.11a8.71,8.71,0,0,1-1.27-.22l-2.09-.35c-1.24-.2-2.33-.88-3.54-1.19-2.57-.65-4.66-2.24-6.78-3.7a20.13,20.13,0,0,1-3.57-2.93c-1.28-1.41-2.77-2.62-4.11-4a15.56,15.56,0,0,1-1.48-2c-.64-.91-.77-.93-1.71-.38a4,4,0,0,1-.84.35,3.31,3.31,0,0,0-1.62.64.87.87,0,0,1-.52.26c-1.65.08-3.18.8-4.87.84-1.22,0-2.45.2-3.67.17A12.46,12.46,0,0,1,5.69,43c-.89-.15-1.77-.3-2.65-.49A6.14,6.14,0,0,1,.56,40.93,1.68,1.68,0,0,1,.48,38.5c.57-.41.7-.47,1.36-.09a17,17,0,0,0,4.09,1.75c.15,0,.34.18.44.13,1.21-.6,2.51.46,3.7-.21a13,13,0,0,0,4.17-.72.5.5,0,0,1,.24,0c1.26.27,2.06-.59,2.95-1.22a.57.57,0,0,0,.15-.91c-.74-1.07-1.44-2.16-2.15-3.24a17.06,17.06,0,0,0-1.77-2.63c-1.3-1.33-1.91-3.18-3.43-4.31-.11-.08-.14-.28-.23-.4a6.58,6.58,0,0,0-3.26-2.57,3.5,3.5,0,0,1-.53-.25c-.95-.5-1-.72-.75-1.8a4.75,4.75,0,0,0,.1-.58.58.58,0,0,1,.65-.56,8.49,8.49,0,0,1,3.3.29,1.67,1.67,0,0,0,.68.17,4.84,4.84,0,0,1,2.08.37,1.4,1.4,0,0,0,.91,0,2.62,2.62,0,0,1,2.17.17,1.68,1.68,0,0,0,.8.15,14.57,14.57,0,0,1,2.91.4,3,3,0,0,0,.68,0,10.18,10.18,0,0,1,2-.09,36.71,36.71,0,0,0,4.82.46,6.24,6.24,0,0,1,1.86.26,8.15,8.15,0,0,0,2.24.22,16.43,16.43,0,0,1,2,.16,4.13,4.13,0,0,0,2-.48c.28-.11.48-.5.67-.79a11.21,11.21,0,0,1,2-2.76,1.86,1.86,0,0,0,.35-.59,13.89,13.89,0,0,1,1.05-2,23.14,23.14,0,0,0,1.49-2.77A.86.86,0,0,0,40.05,13,23.37,23.37,0,0,1,38.26,11a7.87,7.87,0,0,1-.73-1.46,5.14,5.14,0,0,1,0-3.85,8.1,8.1,0,0,1,1.91-2.77A9.05,9.05,0,0,1,43.22.62,10.68,10.68,0,0,1,45.72,0c1-.14,1.71.77,1.83,1.9a9,9,0,0,1-1,4.68c-.66,1.46-1.33,2.93-2,4.4-.37.86-.22,1.19.58,1.62A13.12,13.12,0,0,0,50.82,13.93Zm-3,39.27c.67-.11,1.53-.21,2.36-.42a20.43,20.43,0,0,0,2.11-.71,10.28,10.28,0,0,0,3.21-1.91c1.57-1.36,1.84-3.33,2.29-5.18.36-1.5-.26-3-.06-4.57a11,11,0,0,0-.4-2.9c-.13-.85-.3-1.7-.38-2.56a7.17,7.17,0,0,0-.79-3,.83.83,0,0,1,0-.59,6.42,6.42,0,0,0,0-2.18,18.19,18.19,0,0,0-.23-1.88,1.35,1.35,0,0,0-1-1.09A7.36,7.36,0,0,0,51.43,26a14.76,14.76,0,0,1-3,.2c-.39,0-.78.11-1.17.12-.83,0-1.66,0-2.49,0l-2.24,0a20.5,20.5,0,0,1-5.22-.1,2.37,2.37,0,0,0-.81.06,2.82,2.82,0,0,0-1.6,1.14c-1.05,1.15-1.67,2.68-3.05,3.56-.18.11-.24.4-.37.59a6.11,6.11,0,0,1-.65.84c-.22.22-.54.33-.76.56-.86.88-1.69,1.79-2.53,2.69a2.31,2.31,0,0,1-.46.36c-1.06.66-2.15,1.3-3.19,2a3.74,3.74,0,0,0-.82.85.65.65,0,0,0-.11.52,3.75,3.75,0,0,0,.56,1.27Q25,42.38,26.67,44a32.66,32.66,0,0,0,2.63,2.39,21.73,21.73,0,0,1,3.27,2.51,19.89,19.89,0,0,1,2.79,1.48c1.19.59,2.39,1.15,3.62,1.65a15.62,15.62,0,0,0,3.74.93C44.36,53.22,46,52.89,47.87,53.21ZM31.94,26.82c0-.69-.18-.88-.83-.91-2-.07-4.06.2-6.06-.25-1.31-.3-2.66-.11-4-.43-.53-.13-1.16.2-1.73.16S18.12,25,17.52,25c-1.57,0-3.13-.23-4.7,0-.9.11-1,.19-.56,1,.09.17.24.31.34.48.83,1.34,2,2.39,2.84,3.77A19.2,19.2,0,0,1,17.29,33c.09.26.39.45.61.65.37.34.82.6.88,1.21a2.16,2.16,0,0,0,.43.83,1.85,1.85,0,0,0,1.84.7,11.52,11.52,0,0,0,2.75-1.56c1.45-1.33,3.13-2.39,4.37-4a44.89,44.89,0,0,1,3.41-3.5A2.9,2.9,0,0,0,31.94,26.82Zm16.55-3.24a15.46,15.46,0,0,1,1.64-.29c1.58-.11,3.16-.17,4.74-.25a1,1,0,0,0,1.07-1c.07-.74.22-1.48.22-2.22a14.16,14.16,0,0,1,0-2.29c.13-.82-.25-1.17-1-.93a13.06,13.06,0,0,1-3.07.21,5.1,5.1,0,0,0-1.06.09,4.17,4.17,0,0,1-2.55-.07A13.13,13.13,0,0,0,47,16.54a6,6,0,0,1-2.55-.77c-1.28-1-1.24-.9-2.38.33a2.28,2.28,0,0,0-.21.42l-2.77,4.79c-.18.3-.38.59-.53.9-.39.81-.19,1.17.69,1.29a3.59,3.59,0,0,0,.72,0c.51,0,1-.13,1.53-.13s1.09.11,1.63.12a12.63,12.63,0,0,1,1.29-.1,5.6,5.6,0,0,0,2.65-.12c.09,0,.23,0,.34.07ZM39.6,7.64a2.82,2.82,0,0,0,.74,1.85c1.14,1.18,1.59.84,2.29-.38A23.13,23.13,0,0,0,44.39,3.9a.75.75,0,0,0-.9-1,2.62,2.62,0,0,0-1.15.52A10.61,10.61,0,0,0,40.9,4.84,4.74,4.74,0,0,0,39.6,7.64Z"/><path class="cls-1" d="M125.39,38.85a16.84,16.84,0,0,0,1.72-2.5,15.89,15.89,0,0,1,1.95-2.52c.27-.33.56-.65.81-1a7.74,7.74,0,0,1,2.51-2.14,2.07,2.07,0,0,1,2.58.41,1.07,1.07,0,0,1,.28,1.15A13.88,13.88,0,0,1,133.93,36a1.81,1.81,0,0,0-.23.78,9.3,9.3,0,0,1-.74,3.08,1.82,1.82,0,0,0-.21.66,5.16,5.16,0,0,1-.38,2,1.87,1.87,0,0,0-.09.93,14.19,14.19,0,0,0,.78,3.18,5.68,5.68,0,0,0,2.57,2.84,10.63,10.63,0,0,0,3.12,1.3c.15,0,.34.15.45.1.66-.32,1.3,0,1.94,0a6.85,6.85,0,0,0,2.86-.58,3.61,3.61,0,0,1,.66-.26,5.58,5.58,0,0,0,3.11-2,3,3,0,0,1,.67-.49,2.69,2.69,0,0,0,1.24-1.33c.2-.55.83-.95,1.28-1.4A2.42,2.42,0,0,0,152,43a.56.56,0,0,1,.14-.32c1.11-1.42,1.13-3.22,1.66-4.84a8.92,8.92,0,0,0,.11-1.78,2.73,2.73,0,0,1,.28-1.13c.43-.69,1-.71,1.53-.1a3,3,0,0,1,.84,2.13,13.5,13.5,0,0,1-1.18,5.24c-.38.9-.78,1.78-1.23,2.65a12.21,12.21,0,0,1-2.21,3.05,16.08,16.08,0,0,1-2.33,2.32c-1.4.92-2.58,2.21-4.28,2.64a13.42,13.42,0,0,1-4.29.65c-.55,0-1.08-.17-1.63-.23A12.2,12.2,0,0,1,133,50.48a9.55,9.55,0,0,1-1.7-2.1,16.76,16.76,0,0,1-1-1.89.4.4,0,0,1,0-.11,10.35,10.35,0,0,1-.34-3.73,3.87,3.87,0,0,0,.13-1.4,3,3,0,0,1,.27-1.91,4.07,4.07,0,0,0,.21-2.11c0-.5-.42-.59-.84-.28a6.31,6.31,0,0,0-2,3.27,10.42,10.42,0,0,1-.34,1c-.29.64-.59,1.27-.93,1.88-1.36,2.36-1.78,5.1-3.11,7.47a2.9,2.9,0,0,0-.18.91,2.4,2.4,0,0,1-.65,1.59,1.85,1.85,0,0,1-1.89.35,2,2,0,0,1-1-2,11.65,11.65,0,0,0,.47-3.63c.82-1.53.62-3.3,1.15-4.91a5.77,5.77,0,0,0,.53-2.76c.68-1,.41-2.23.48-3.36,0-.35.18-.68.22-1s.09-.72-.32-.79a1.66,1.66,0,0,0-.84.21c-.12.05-.19.24-.28.37s-.2.38-.36.47c-1.57.95-2.17,2.66-3.2,4s-1.82,2.76-2.8,4.09c-.79,1.08-1.71,2.07-2.56,3.11-.4.49-.72,1-1.15,1.48s-1.21,1.13-1.82,1.69c-.22.21-.41.44-.64.64a8.57,8.57,0,0,1-1.56,1.25,13.56,13.56,0,0,1-2.95,1.13,5.52,5.52,0,0,1-5-2.38.79.79,0,0,0-.23-.27c-1-.69-.95-1.79-1.22-2.81-.33-1.25.06-2.42.07-3.63a2.34,2.34,0,0,0-1-1.92c-.56-.49-1.12-1-1.7-1.46-.21-.17-.46-.29-.67-.46s-.51-.11-.7.14a11,11,0,0,0-1.79,3,21.23,21.23,0,0,1-1.4,2.84,1.9,1.9,0,0,1-.39.58,5.79,5.79,0,0,0-1.23,1.72,11.58,11.58,0,0,1-1,1.46A17,17,0,0,1,84.9,53a3.34,3.34,0,0,1-2.61.52,8.17,8.17,0,0,1-2-.55c-.85-.33-1.22-1.19-1.74-1.86a3.76,3.76,0,0,1-1-2.34c0-.51-.56-.67-1-.34a3.08,3.08,0,0,0-.58.6c-.5.7-.92,1.47-1.47,2.12a5.72,5.72,0,0,1-3.78,2.19,7.44,7.44,0,0,1-2.68,0,2.56,2.56,0,0,1-1.42-.78,8.83,8.83,0,0,1-1.87-2.84,6.88,6.88,0,0,1-.28-1.62c-.11-1.06-.77-2-.59-3.12a27.36,27.36,0,0,1,.84-4.87,33.81,33.81,0,0,0,1.14-3.31c.33-1.37.94-2.64,1.18-4a4.13,4.13,0,0,1,.69-1.61,1.64,1.64,0,0,1,2.64,0,1.28,1.28,0,0,1,.21.89,25.42,25.42,0,0,1-.72,3c-.19.59-.63,1.09-.85,1.67a34.7,34.7,0,0,0-1.77,5.83,8.91,8.91,0,0,0-.46,2.79,15.83,15.83,0,0,0,.57,3.12,3.13,3.13,0,0,0,2.47,2,2.1,2.1,0,0,0,1.75-.59,3.88,3.88,0,0,0,1.08-1.11A18.53,18.53,0,0,0,74,46.23a37.75,37.75,0,0,1,1.6-3.54,3.92,3.92,0,0,0,.24-1c.12-.82.21-1.64.33-2.45a4.8,4.8,0,0,0,.15-.93,2.1,2.1,0,0,1,.8-1.77c.66-.6.91-.65,1.57-.3A1.48,1.48,0,0,1,79.63,38a2,2,0,0,0,0,1.25,3.45,3.45,0,0,1,0,1.54c-.41,1.7-.09,3.41-.23,5.11a4.28,4.28,0,0,0,1,3.08,2.57,2.57,0,0,0,2.63.87,4.81,4.81,0,0,0,2.66-2.24c0-.07,0-.17.09-.22,1.36-1.12,1.73-2.92,2.83-4.19S90.11,40.35,91,39a2.18,2.18,0,0,0,.14-2.31,8.65,8.65,0,0,1-.94-2.39,7.08,7.08,0,0,1,0-2.58c.2-1.08,2.2-1.54,3-1.1A3.57,3.57,0,0,1,95,34.81a15.64,15.64,0,0,1-.8,2.93.89.89,0,0,0,.48,1.3c.75.43,1.53.82,2.32,1.17a1,1,0,0,0,1.48-.52c.3-.5.55-1,.81-1.56.45-.95.81-2,1.34-2.85a18.66,18.66,0,0,1,1.61-2.61,3.84,3.84,0,0,1,1.4-1.22c.68-.28,1.14-.89,2-1a3.76,3.76,0,0,1,2.35.4,2.87,2.87,0,0,1,1.39,1.85c.5,1.93.7,3.95-.39,5.73a9.4,9.4,0,0,1-3.08,3.35,15.7,15.7,0,0,1-1.8,1.07,5.34,5.34,0,0,1-2.19.37c-1.9,0-2.85,1.21-2.43,3a4.91,4.91,0,0,1,.17,1.28,3.27,3.27,0,0,0,.9,2.24,2.14,2.14,0,0,0,2.52.69,9.11,9.11,0,0,0,4.16-3,39.86,39.86,0,0,0,2.57-3.24,6.12,6.12,0,0,0,.65-1,1.85,1.85,0,0,1,.8-1,.18.18,0,0,0,.09-.07c.52-1.26,1.78-1.94,2.42-3.12a8.24,8.24,0,0,1,1.41-1.87,33.56,33.56,0,0,1,2.56-2.6,2.26,2.26,0,0,0,.51-.51c1.19-1.87,3.1-2.73,5-3.51a2.52,2.52,0,0,1,3.18,1.68,1.44,1.44,0,0,1,0,.7c-.34,1.28-.69,2.57-1.08,3.84A3.87,3.87,0,0,0,125.39,38.85Zm-23.84.47c0,.66.32,1.08.76,1,1.86-.51,3.41-1.42,4-3.41.19-.59.34-1.2.57-1.78a.84.84,0,0,0-.31-1,.63.63,0,0,0-.93.08c-.3.3-.51.7-.81,1-.62.61-1.33,1.13-1.92,1.76A5,5,0,0,0,101.55,39.32Z"/><path class="cls-1" d="M201.17,32.39a6.31,6.31,0,0,1-1,.85,6,6,0,0,1-2.55.86,5,5,0,0,0-1.33.44,7.51,7.51,0,0,1-2.59.25,1.83,1.83,0,0,0-1.87,1.32,26,26,0,0,1-1.82,4.7c-.13.27-.12.62-.22.91-.58,1.57-1.17,3.14-1.76,4.71-.66,1.76-1.36,3.5-2,5.27-.32.92-.48,1.89-.71,2.83a7.78,7.78,0,0,1-.28,1.14c-.45,1.08-1,2.13-1.39,3.23a.84.84,0,0,1-.88.62,5.82,5.82,0,0,1-4.25-1.13,1.65,1.65,0,0,0-.52-.27,27.54,27.54,0,0,1-5.08-2.68,13,13,0,0,0-3.31-1.73c-1-1.11-2.66-1.32-3.75-2.43a9.41,9.41,0,0,0-2.34-1.35c-1.31-.71-2.62-1.41-3.95-2.09a3.23,3.23,0,0,0-1-.32c-1.61-.23-2-2.57-1.09-3.49A7,7,0,0,1,160,42.49a7.19,7.19,0,0,0,2-.94,5,5,0,0,1,2-.64c1.66-.43,3.3-.95,5-1.39a9.5,9.5,0,0,1,2.55-.41,7.39,7.39,0,0,0,2.83-.72c.33-.14.62-.35,1-.08a.64.64,0,0,0,.45,0c1.22-.27,2.44-.56,3.66-.82a11.05,11.05,0,0,1,3-.49,22.32,22.32,0,0,0,2.6-.24,8.26,8.26,0,0,0,3.4-1.13c-.17-.15-.29-.33-.45-.37a8.53,8.53,0,0,0-3.23-.35,4.12,4.12,0,0,1-1.84-.18,7,7,0,0,1-1.93-1.1,1.61,1.61,0,0,1-.42-1.76,1.44,1.44,0,0,1,1.29-.92,3,3,0,0,1,1.08,0c1.18.26,2.35.67,3.54.83a16.81,16.81,0,0,0,3.46,0,1.74,1.74,0,0,0,1.39-1.16c.14-.32.25-.66.4-1,.7-1.44,1.47-2.85,2.12-4.32a22.8,22.8,0,0,1,1.78-3.29c.86-1.3,1.63-2.66,2.46-4,.29-.46.69-.86,1-1.32s.17-.72-.4-.74a3.92,3.92,0,0,0-2.1.28.76.76,0,0,1-.33.14,20.44,20.44,0,0,0-3,.5,31.51,31.51,0,0,1-4.27.25,19.83,19.83,0,0,1-4.79-.61,13.44,13.44,0,0,1-3.38-1.29A12.38,12.38,0,0,1,177,12.44a4.51,4.51,0,0,0-.76-.76,7.72,7.72,0,0,1-1.89-2.55,5.5,5.5,0,0,1-.78-2.81c0-1,.73-1.42,1.7-1.16a2.6,2.6,0,0,1,1.85,2.22,14.68,14.68,0,0,0,1.58,3.4c1.34,1,2.4,2.44,4.24,2.67a11,11,0,0,1,1.93.48,7.2,7.2,0,0,0,3.06.16,2.07,2.07,0,0,1,.33,0c.67,0,1.35.09,2,.12a11.19,11.19,0,0,0,4.56-.53,8.79,8.79,0,0,1,.92-.2A17,17,0,0,0,201.58,11a3.78,3.78,0,0,0,.57-.4c.89-.94,1.77-1.89,2.64-2.84s1.84-.65,2.18.23c.1.26.34.48.37.73a2,2,0,0,1-.14,1.12A12.13,12.13,0,0,1,206,11.35c-.48.58-1,1.15-1.44,1.73-.12.15-.17.37-.31.49a10.36,10.36,0,0,0-2.24,3.3c-.12.21-.28.38-.42.58a5.37,5.37,0,0,0-1.22,2.13,1.45,1.45,0,0,1-.34.62c-.87,1.08-1.3,2.44-2.06,3.55A32.11,32.11,0,0,0,195.79,28c-.29.6-.71,1.14-1.05,1.72a2,2,0,0,0-.27.64c-.13.75.11,1,.88,1,1.32,0,2.64,0,4,0A1.84,1.84,0,0,1,201.17,32.39Zm-14.53,7-2.21.61a4.32,4.32,0,0,1-1.12.32,8.13,8.13,0,0,0-2.43.43,1.62,1.62,0,0,1-.59.07,4.88,4.88,0,0,0-2.41.47,3,3,0,0,1-.9.25c-1.14.1-2.28.17-3.43.25-.16,0-.35,0-.47,0A13.3,13.3,0,0,1,169,42.85a38.34,38.34,0,0,0-5.29,1.89c-.51.17-1.15.41-1.14,1.05s.64.75,1.08,1c1.56.81,3.17,1.54,4.7,2.4s3,2,4.59,2.83a6.79,6.79,0,0,1,1.54,1.08,3.88,3.88,0,0,0,1.1.68c1.29.57,2.35,1.59,3.8,1.84.21,0,.4.24.6.36a4.41,4.41,0,0,0,.61.35c.57.22.88.12,1.14-.45a14.13,14.13,0,0,0,.48-1.44A15.44,15.44,0,0,1,183,52a11.59,11.59,0,0,0,.87-2.41,19.41,19.41,0,0,1,.71-2.23c.41-1,.9-2,1.34-3a1.21,1.21,0,0,0,.09-.58,2.67,2.67,0,0,1,.38-1.35,21.4,21.4,0,0,0,.81-2.19A.65.65,0,0,0,186.64,39.36Z"/></g></svg>